<?xml version="1.0" encoding="UTF-8"?>
<!DOCTYPE svg PUBLIC "-//W3C//DTD SVG 1.1//EN" "http://www.w3.org/Graphics/SVG/1.1/DTD/svg11.dtd">
<!-- Creator: CorelDRAW -->
<svg xmlns="http://www.w3.org/2000/svg" xml:space="preserve" width="0.218748in" height="0.1875in" style="shape-rendering:geometricPrecision; text-rendering:geometricPrecision; image-rendering:optimizeQuality; fill-rule:evenodd; clip-rule:evenodd"
viewBox="0 0 0.218748 0.1875"
 xmlns:xlink="http://www.w3.org/1999/xlink">
 <defs>
  <style type="text/css">
   <![CDATA[
    .fil0 {fill:#FEFEFE}
   ]]>
  </style>
 </defs>
 <g id="Layer_x0020_1">
  <metadata id="CorelCorpID_0Corel-Layer"/>
  <g id="icon_x002f_32_x002f_baggage">
   <path id="Shape" class="fil0" d="M0.190972 0.031248c0.00777559,0 0.0143504,0.00208268 0.0197205,0.00625197 0.00537008,0.00416535 0.00805512,0.00902756 0.00805512,0.0145827l0 0.114583c0,0.00583465 -0.00268504,0.0107638 -0.00805512,0.0147913 -0.00537008,0.00402756 -0.0119449,0.00604331 -0.0197205,0.00604331l-0.0138898 0 0 -0.156252 0.0138898 0zm-0.190972 0.0208346c0,-0.00555512 0.00277559,-0.0104173 0.00833071,-0.0145827 0.00555906,-0.00416929 0.0120394,-0.00625197 0.0194449,-0.00625197l0.0138898 0 0 0.156252 -0.0138898 0c-0.00740551,0 -0.0138858,-0.00201575 -0.0194449,-0.00604331 -0.00555512,-0.00402756 -0.00833071,-0.00895669 -0.00833071,-0.0147913l0 -0.114583zm0.144157 -0.0425l0 0.0216654 0.0225079 0 0 0.156252 -0.114583 0 0 -0.156252 0.0225079 0 0 -0.0216654c0.0133661,-0.00638976 0.0249606,-0.00958268 0.0347835,-0.00958268 0.00982283,0 0.0214173,0.00319291 0.0347835,0.00958268zm-0.00874016 0.0216654l0 -0.0152756c-0.00820866,-0.00370472 -0.0168898,-0.00555906 -0.0260433,-0.00555906 -0.00852362,0 -0.0172047,0.00185433 -0.0260433,0.00555906l0 0.0152756 0.0520866 0z"/>
  </g>
 </g>
</svg>
