
<svg width="32" height="32" viewBox="0 0 32 32" fill="none" xmlns="http://www.w3.org/2000/svg">
<g id="icon/32/baggage">
<path id="Shape" fill-rule="evenodd" clip-rule="evenodd" d="M23.8333 9.5C24.58 9.5 25.2111 9.7 25.7267 10.1C26.2422 10.5 26.5 10.9667 26.5 11.5V22.5C26.5 23.06 26.2422 23.5333 25.7267 23.92C25.2111 24.3067 24.58 24.5 23.8333 24.5H22.5V9.5H23.8333ZM5.5 11.5C5.5 10.9667 5.76667 10.5 6.3 10.1C6.83333 9.7 7.45556 9.5 8.16667 9.5H9.5V24.5H8.16667C7.45556 24.5 6.83333 24.3067 6.3 23.92C5.76667 23.5333 5.5 23.06 5.5 22.5V11.5ZM19.3393 7.42V9.5H21.5V24.5H10.5V9.5H12.6607V7.42C13.944 6.80667 15.0571 6.5 16 6.5C16.9429 6.5 18.056 6.80667 19.3393 7.42ZM18.5 9.5V8.03333C17.7121 7.67778 16.8788 7.5 16 7.5C15.1818 7.5 14.3485 7.67778 13.5 8.03333V9.5H18.5Z" fill="black"/>
</g>
</svg>
