<svg width="32" height="32" viewBox="0 0 32 32" fill="none" xmlns="http://www.w3.org/2000/svg">
<path fill-rule="evenodd" clip-rule="evenodd" d="M8 6C8 5.44771 8.44772 5 9 5C9.55228 5 10 5.44772 10 6V10H14V6C14 5.44772 14.4477 5 15 5C15.5523 5 16 5.44772 16 6V10H18.3059C19.2415 10 20 10.7585 20 11.6941V12.3059C20 13.1814 19.3359 13.9018 18.4839 13.9908L17.3978 18.1801C16.9673 19.8405 15.4688 21 13.7535 21H13.1944C13.2273 23.8607 13.6551 24.9567 16.7935 24.9567C18.5998 24.9567 20.13 23.9509 21.4878 22.9733C23.1957 21.7438 25.631 20.559 27 21.4768V23.4737C26.074 22.8565 24.442 23.3423 23.7259 23.8033C23.3937 24.0172 23.0495 24.2914 22.6758 24.589C21.3482 25.6464 19.6487 27 16.7935 27C12.3479 27 11.2968 25.084 11.063 21H10.2465C8.53116 21 7.03272 19.8405 6.60225 18.1801L5.51612 13.9908C4.66415 13.9018 4 13.1814 4 12.3059V11.6941C4 10.7585 4.75848 10 5.69412 10H8V6Z" fill="black"/>
</svg>
