<svg width="48" height="32" viewBox="0 0 48 32" fill="none" xmlns="http://www.w3.org/2000/svg">
<mask id="mask0" mask-type="alpha" maskUnits="userSpaceOnUse" x="0" y="0" width="48" height="32">
<rect width="48" height="32" rx="11" fill="#41479B"/>
</mask>
<g mask="url(#mask0)">
<rect width="48" height="32" rx="4" fill="#004991"/>
<path fill-rule="evenodd" clip-rule="evenodd" d="M47.9374 3.2913C47.7006 1.96678 46.8118 0.868189 45.6149 0.339392C45.5901 0.336389 45.5665 0.334839 45.5444 0.334839C45.5444 0.334839 45.5288 0.310039 45.461 0.275205C45.3847 0.245243 45.3072 0.217559 45.2286 0.192237C45.1121 0.161723 44.9537 0.131379 44.739 0.107012C44.026 0.0260706 43.6402 0.0259765 43.6402 0.0259765L28.2482 10.2472V0.0259765H19.9399V10.2472L4.4363 0H4C2.08971 0 0.492184 1.3391 0.0949215 3.12982L13.2056 11.8154H0V20.2365H13.2056L0.109441 28.9332C0.52982 30.6922 2.11219 32 4 32H4.58717L19.94 21.8047V32H28.2484V21.8047L43.6013 32H44C45.9266 32 47.535 30.638 47.915 28.8243L34.9829 20.2365H48V11.8155H34.9827L47.9374 3.2913Z" fill="white"/>
<path fill-rule="evenodd" clip-rule="evenodd" d="M0 13.4737V18.5263H21.5172V32H26.4827V18.5263H47.9999V13.4737H26.4827V0H21.5172V13.4737H0ZM0.483867 2.09136C0.756589 1.59001 1.13341 1.15348 1.58532 0.810787L18.2069 11.7895H15.1668L0.483867 2.09136ZM45.5288 0.302529L28.1379 11.7895H31.178L46.9914 1.34446C46.5921 0.894941 46.0929 0.536052 45.5288 0.302529ZM47.4171 30.0804L32.4738 20.2105H29.4337L46.2426 31.3127C46.7167 30.9911 47.1181 30.5704 47.4171 30.0804ZM2.44321 31.6857L19.8165 20.2106H16.7763V20.2105L0.991709 30.6364C1.38725 31.0874 1.88258 31.4487 2.44321 31.6857Z" fill="#EC362C"/>
<path fill-rule="evenodd" clip-rule="evenodd" d="M26.4827 13.4737H47.9999V18.5263H26.4827V32H21.5172V18.5263H0V13.4737H21.5172V0H26.4827V13.4737ZM3.6734 2.79492C4.11464 2.40065 4.58788 2.04144 5.08874 1.72168L20.2069 11.7074H17.1668L3.6734 2.79492ZM4.35192 29.7645C3.89081 29.4142 3.45818 29.0283 3.05812 28.611L15.7763 20.2104V20.2105H18.8165L4.35192 29.7645ZM44.6445 28.9096C44.2244 29.3157 43.7721 29.6886 43.2917 30.0242L28.4336 20.2104H31.4737L44.6445 28.9096ZM45.3008 3.78195L33.1778 11.7894H30.1377L44.0795 2.58061C44.517 2.94889 44.9254 3.35066 45.3008 3.78195Z" fill="#EC362C"/>
</g>
</svg>
