<?xml version="1.0" encoding="iso-8859-1"?>
<!DOCTYPE svg PUBLIC "-//W3C//DTD SVG 1.0//EN" "http://www.w3.org/TR/2001/REC-SVG-20010904/DTD/svg10.dtd">
<!-- Creator: CorelDRAW -->
<svg xmlns="http://www.w3.org/2000/svg" xmlns:odm="http://product.corel.com/CGS/11/cddns/" xml:space="preserve" width="8.5in" height="11in" style="shape-rendering:geometricPrecision; text-rendering:geometricPrecision; image-rendering:optimizeQuality; fill-rule:evenodd"
     viewBox="0 0 8500 11000">
 <defs>
  <style type="text/css">
   <![CDATA[
    .fil0 {fill:#FFFFFF}
   ]]>
  </style>
 </defs>
 <g id="Layer 1">
  <path class="fil0" d="M6507 3409l261 80 21 7 -4755 0 282 -86 838 0c-1,0 2,0 5,0 1,0 2,0 3,0 -25,-18 -51,-57 -63,-90 -37,2 -63,-44 -67,-80 -16,-110 -31,-255 -29,-492l2 -31 1 -1 20 -341c1,-19 13,-35 31,-40 161,-55 942,-309 1015,-320 88,-13 203,-25 352,-31 220,-9 483,-5 665,56 175,59 323,166 465,278 17,-63 123,24 106,85 12,9 58,50 90,80 37,35 62,68 80,92l0 0 1 0c4,5 8,11 12,16l19 23c36,17 43,53 41,62 0,0 2,6 9,22 3,8 6,15 9,22l0 1 0 0 0 0 0 0 0 0c5,11 9,22 11,30 57,172 52,404 -44,479l-1 0c0,1 0,1 0,1 0,1 -1,1 -1,1 0,1 -1,1 -1,2 -14,12 -82,74 -173,83 -8,28 -26,56 -79,92l874 0zm-621 -752c4,0 -19,-37 -37,-30 -30,10 -48,76 -51,93 5,-14 46,-93 88,-63zm-69 343c-21,28 -30,56 -33,68 -6,19 27,14 44,12 2,0 3,0 4,-1 28,-3 68,-7 103,-17 1,0 1,0 2,-1l1 0 0 0c7,-2 15,-5 17,-17 0,-5 0,-10 1,-15 2,-20 3,-39 2,-52 0,-12 -2,-17 -19,-14 -8,1 -56,9 -84,14 -16,2 -27,9 -38,23zm-88 -324c0,-37 -9,-41 -52,-48 -42,-7 -273,0 -273,0 0,0 -270,7 -334,9 -70,3 -23,75 -23,75l81 114c5,8 14,13 23,15 49,9 170,24 305,23 124,0 216,-24 242,-32 6,-2 12,-7 15,-14 12,-33 16,-119 16,-142zm-933 412c75,13 195,18 232,17 39,1 43,-6 15,-88 -11,-34 -83,-35 -89,-35 -21,-2 -63,-4 -107,-5l0 0 0 0 0 0c-48,-3 -99,-5 -130,-7 -59,-4 -48,24 -44,29 18,27 48,76 123,89zm262 -1013c-288,-88 -837,-40 -962,-19 -7,1 -11,7 -9,14 7,28 27,100 84,208 59,112 143,108 324,100 44,-3 95,-5 152,-6 269,-4 790,7 874,9 4,0 21,0 10,-12 -197,-186 -339,-253 -473,-294zm-1096 33l-265 79c-7,2 -12,10 -12,18l21 377c0,7 6,11 13,11l315 -55c0,0 -27,-19 -76,-37 -52,-19 -103,-43 -80,-112 11,-35 39,-46 60,-50 42,-7 87,-4 130,23l-81 -241c-4,-10 -15,-16 -25,-13zm-911 589c0,6 5,10 10,9l239 -42c7,-1 12,-7 12,-14l-9 -336c0,-3 -4,-6 -8,-5l-223 67c-6,2 -9,7 -10,13l-11 308zm229 646c4,-5 23,-34 29,-65 10,-44 14,-99 7,-158 -7,-51 -21,-98 -41,-136 -25,-53 -62,-85 -97,-80 -28,4 -40,25 -46,35l0 0c-30,45 -42,124 -30,213 14,101 56,183 102,209 10,5 20,9 37,7 9,-1 24,-5 39,-25zm64 -1036l11 337c0,6 5,11 11,10l273 -48c8,-2 14,-9 13,-16l-15 -375c-1,-4 -5,-8 -9,-6l-273 82c-7,2 -11,8 -11,16zm135 1093c-3,4 -8,7 -13,10l705 0c-47,-34 -63,-78 -63,-78l-581 17c0,0 -22,32 -48,51zm827 -18c38,-11 66,-51 83,-104 17,-53 22,-121 14,-194 -9,-63 -27,-119 -50,-164 -36,-67 -84,-105 -131,-99 -80,10 -128,144 -109,301 17,138 85,247 155,262 20,4 35,0 38,-2zm436 -751c-105,-26 -206,-14 -195,0 9,12 41,64 41,64 0,0 131,-118 379,82 -2,-4 -93,-114 -225,-146zm-85 705c0,0 -16,46 -48,74l0 1 645 0c-18,-17 -31,-37 -41,-51l0 0 0 0c-5,-7 -9,-13 -12,-17 -173,1 -544,-7 -544,-7zm485 -252c3,13 14,22 27,22 193,7 440,-2 531,-15 10,-2 18,-7 23,-16 11,-16 27,-39 34,-60 11,-34 -21,-30 -34,-28l0 0c-1,0 -2,0 -3,0 -209,30 -419,17 -523,10l0 0c-9,0 -16,-1 -23,-1 -3,-1 -6,-1 -9,-1l0 0c-21,-3 -44,-5 -40,23 2,13 6,29 11,44 2,8 4,15 6,22zm-2754 656c-160,0 -269,118 -269,251 0,128 102,185 202,185 62,0 116,-18 157,-42l60 -212 -193 0 -22 85 80 0 -16 57c-15,6 -33,11 -56,11 -52,0 -95,-31 -95,-89 0,-77 58,-143 143,-143 45,0 80,19 104,44l78 -75c-29,-38 -90,-72 -173,-72zm594 9l-336 0 -113 418 339 0 26 -99 -224 0 18 -66 201 0 24 -91 -200 0 17 -64 220 0 28 -98zm123 101l-125 0 28 -102 366 0 -27 102 -126 0 -84 317 -117 0 85 -317zm261 0l126 0 -86 317 117 0 84 -317 127 0 26 -102 -366 0 -28 102zm431 -101l158 0c70,0 116,15 144,43 23,22 33,52 33,86 0,70 -40,125 -126,148l64 141 -128 0 -55 -127 -52 0 -34 127 -117 0 113 -418zm128 201c52,0 87,-22 87,-58 0,-11 -4,-20 -11,-28 -9,-9 -27,-14 -51,-14l-62 0 -28 100 65 0zm559 -204l-114 0 -292 421 126 0 50 -75 162 0 11 75 122 0 -65 -421zm-92 136l15 120 -93 0 78 -120zm300 -133l109 0 109 233 63 -233 115 0 -112 418 -103 0 -113 -241 -65 241 -115 0 112 -418zm424 272l-75 77c45,48 113,77 194,77 104,0 179,-59 179,-145 0,-63 -45,-92 -109,-117 -58,-22 -71,-28 -71,-45 0,-16 18,-30 46,-30 42,0 79,19 110,47l73 -80c-40,-39 -98,-63 -172,-63 -103,0 -178,60 -178,143 0,61 43,90 109,115 59,22 70,31 70,47 0,19 -19,31 -47,31 -46,0 -88,-19 -129,-57zm430 -272l335 0 -27 102 -219 0 -19 71 197 0 -26 96 -197 0 -41 149 -116 0 113 -418zm727 0l-336 0 -111 419 339 0 25 -99 -224 0 18 -66 201 0 24 -91 -200 0 17 -64 220 0 27 -99zm66 0l158 0c70,0 116,15 144,43 22,22 33,52 33,86 0,70 -41,125 -126,148l64 141 -128 0 -56 -127 -52 0 -33 127 -117 0 113 -418zm128 201c52,0 86,-22 86,-58 0,-11 -3,-20 -10,-28 -10,-9 -27,-14 -51,-14l-63 0 -28 100 66 0zm-3866 413l-68 0 -46 229 -26 0 46 -229 -69 0 4 -23 164 0 -5 23zm180 230l-36 -116c42,-8 66,-42 67,-79 0,-28 -14,-57 -62,-57l-87 0 -51 252 25 0 23 -114 59 0 34 114 28 0zm-98 -230l63 0c27,0 39,14 39,36 0,28 -20,58 -59,58l-62 0 19 -94zm312 229l-8 -58 -105 0 -30 58 -28 0 137 -252 22 0 37 252 -25 0zm-29 -215l-72 136 91 0 -19 -136zm261 215l24 0 51 -252 -26 0 -40 204 -87 -204 -24 0 -51 252 25 0 41 -204 87 204zm266 -209c-13,-13 -25,-23 -51,-23 -39,0 -63,28 -63,57 0,20 16,29 37,34l24 6c37,9 55,26 55,62 0,49 -44,76 -96,76 -35,0 -57,-11 -78,-35l20 -17c15,19 33,29 60,29 37,0 67,-22 67,-53 0,-26 -16,-35 -36,-39l-24 -6c-24,-5 -55,-20 -55,-56 0,-36 26,-80 91,-80 26,0 49,7 66,29l-17 16zm120 -20l122 0 6 -22 -148 0 -51 252 25 0 23 -113 105 0 5 -22 -105 0 18 -95zm328 0l-123 0 -18 91 105 0 -4 22 -105 0 -19 94 125 0 -4 22 -151 0 51 -252 148 0 -5 23zm185 230l-36 -116c43,-8 67,-42 67,-79 0,-28 -14,-57 -62,-57l-87 0 -51 252 25 0 23 -114 59 0 34 114 28 0zm-98 -230l63 0c27,0 40,14 39,36 0,28 -20,58 -59,58l-62 0 19 -94zm324 20c-13,-13 -25,-23 -51,-23 -39,0 -63,28 -63,57 0,20 15,29 37,34l24 6c37,9 55,26 55,62 0,49 -44,76 -96,76 -35,0 -58,-11 -78,-35l20 -17c15,19 33,29 60,29 37,0 67,-22 67,-53 0,-26 -16,-35 -36,-39l-24 -6c-24,-5 -55,-20 -55,-56 0,-36 26,-80 91,-80 26,0 49,7 66,29l-17 16zm272 151l8 58 25 0 -38 -252 -21 0 -138 252 28 0 31 -58 105 0zm-94 -21l72 -136 19 136 -91 0zm357 79l-24 0 -87 -204 -41 204 -25 0 51 -252 24 0 87 204 40 -204 26 0 -51 252zm149 0l21 -103 100 -149 -29 0 -79 122 -34 -122 -27 0 43 147 -21 105 26 0zm325 0l-24 0 -14 -203 -94 203 -24 0 -12 -252 27 0 7 204 93 -204 23 0 14 204 85 -204 28 0 -109 252zm253 0l25 0 51 -252 -25 0 -23 113 -114 0 22 -113 -25 0 -51 252 25 0 24 -117 114 0 -23 117zm303 -229l-122 0 -18 91 104 0 -3 22 -105 0 -20 94 126 0 -4 22 -151 0 51 -252 148 0 -6 23zm186 230l-37 -116c43,-8 67,-42 68,-79 0,-28 -15,-57 -63,-57l-87 0 -51 252 25 0 24 -114 58 0 35 114 28 0zm-98 -230l62 0c27,0 40,14 40,36 0,28 -20,58 -59,58l-63 0 20 -94zm357 0l-122 0 -19 91 105 0 -4 22 -105 0 -19 94 125 0 -3 22 -152 0 51 -252 148 0 -5 23zm406 -501c33,0 58,-25 58,-57 0,-31 -25,-56 -58,-56 -32,0 -58,25 -58,56 0,32 26,57 58,57zm0 -13c-25,0 -43,-19 -43,-44 0,-25 18,-44 42,-45 25,0 44,20 44,45 0,24 -18,44 -43,44zm-21 -15l12 0 0 -22 6 0c7,0 11,2 12,8 0,2 1,3 1,4 1,5 2,8 4,10l14 0c-1,-3 -2,-6 -4,-15 -2,-7 -5,-11 -10,-13l0 -1c6,-2 11,-7 11,-13 0,-6 -3,-10 -6,-12 -3,-2 -8,-4 -19,-4 -9,0 -16,1 -21,2l0 56zm18 -31l-6 0 0 -17c1,0 3,0 7,0 8,0 12,3 12,8 0,7 -6,9 -13,9z"/>
 </g>
</svg>
