<svg width="32" height="32" viewBox="0 0 32 32" fill="none" xmlns="http://www.w3.org/2000/svg">
<path fill-rule="evenodd" clip-rule="evenodd" d="M11.575 5H13.675C14.5449 5 15.25 5.67157 15.25 6.5V7.46152C15.25 8.00059 14.8021 8.00034 14.2414 8.00002L14.2 8H11.05L11.0086 8.00002C10.4479 8.00034 10 8.00059 10 7.46152V6.5C10 5.67157 10.7052 5 11.575 5ZM11.575 6C11.2851 6 11.05 6.22386 11.05 6.5V7H14.2V6.5C14.2 6.22386 13.965 6 13.675 6H11.575ZM8.02194 19.1692C8.02194 18.8102 8.15069 18.4631 8.3848 18.1909L8.4375 18.1297L8.38216 18.0834C8.35826 18.0626 8.34631 18.0522 8.33482 18.0413C8.32338 18.0304 8.3124 18.0191 8.29052 17.9965L8.2904 17.9964L8.29032 17.9963L8.29029 17.9963L8.29023 17.9962C7.91006 17.5874 7.93328 16.9478 8.34208 16.5677L8.37927 16.5329C8.38814 16.5226 8.38698 16.507 8.37667 16.4981L8.37666 16.4981L8.37665 16.4981L8.37664 16.4981C8.32729 16.4537 8.32728 16.4537 8.28197 16.4052C7.90875 15.9875 7.94481 15.3463 8.3625 14.9731L8.37047 14.966C8.40672 14.9328 8.40921 14.8765 8.37604 14.8403L8.2548 14.7078L8.25474 14.7077L8.25472 14.7077C8.23327 14.6832 8.22253 14.6709 8.21236 14.6582C8.20219 14.6454 8.19258 14.6322 8.17336 14.6058C7.86692 14.1645 7.9763 13.5582 8.42595 13.246L8.34339 13.1412C8.13516 12.8767 8.02194 12.5499 8.02194 12.2133V12.1244C8.02194 10.1227 9.64463 8.5 11.6463 8.5H13.185C15.3041 8.5 17.0219 10.2178 17.0219 12.3369C17.0219 12.5889 16.9409 12.8342 16.7907 13.0366L16.6288 13.2548C16.6119 13.2775 16.6147 13.3093 16.6353 13.3287L16.6972 13.3869C16.7087 13.3979 16.7144 13.4034 16.7201 13.4091C16.7257 13.4147 16.7312 13.4204 16.7422 13.4319C17.1378 13.8523 17.1177 14.5138 16.6972 14.9094L16.6878 14.9183L16.6866 14.9195C16.6792 14.9278 16.6799 14.9405 16.6882 14.9479C16.7032 14.9618 16.7107 14.9687 16.718 14.9758C16.7253 14.9829 16.7325 14.9902 16.7467 15.0048C17.1363 15.4141 17.1202 16.0617 16.7109 16.4512L16.6977 16.4638C16.6736 16.4884 16.674 16.5279 16.6986 16.5521L16.7248 16.5777C16.7515 16.6045 16.7515 16.6045 16.7768 16.6325L16.7768 16.6325L16.7768 16.6326C17.1498 17.0563 17.1087 17.7021 16.685 18.0751L16.6488 18.107C16.6202 18.1321 16.6151 18.1747 16.6369 18.2058L16.7509 18.3688C16.9273 18.6209 17.0219 18.9211 17.0219 19.2288V26C17.0219 26.8284 16.3504 27.5 15.5219 27.5H9.52194C8.69351 27.5 8.02194 26.8284 8.02194 26V19.1692ZM9.04108 14.0358C9.03519 14.0402 9.02921 14.0444 9.01725 14.0529L9.01344 14.0556L9.11376 14.1652C9.51979 14.6089 9.48926 15.2977 9.04557 15.7037L9.03597 15.7124L9.02879 15.7188C9.02293 15.724 9.02243 15.733 9.02899 15.7402C9.4579 16.1093 9.50636 16.7563 9.13722 17.1852C9.11827 17.2064 9.10879 17.217 9.09893 17.2273C9.08908 17.2375 9.07884 17.2474 9.05837 17.2671L9.02307 17.3C9.0187 17.304 9.01845 17.3109 9.0235 17.3162L9.10009 17.3802C9.51226 17.7247 9.5671 18.3382 9.22256 18.7503L9.21365 18.7608L9.14289 18.8431C9.06485 18.9338 9.02194 19.0495 9.02194 19.1692V26C9.02194 26.2761 9.24579 26.5 9.52194 26.5H15.5219C15.7981 26.5 16.0219 26.2761 16.0219 26V19.2288C16.0219 19.1262 15.9904 19.0261 15.9316 18.9421L15.8176 18.7791C15.5038 18.3307 15.5772 17.718 15.988 17.3564L16.0242 17.3245C16.0334 17.3164 16.0343 17.3025 16.0251 17.2921L15.999 17.2665C15.5797 16.856 15.5727 16.1833 15.9833 15.7641L16.0099 15.7378L16.0215 15.7268C16.0308 15.718 16.0311 15.7034 16.021 15.6929C15.6013 15.317 15.5658 14.6721 15.9417 14.2524C15.9565 14.2364 15.9638 14.2284 15.9714 14.2206C15.979 14.2128 15.9869 14.2052 16.0025 14.19L16.012 14.1812C16.0302 14.164 16.031 14.1354 16.012 14.1152L15.9501 14.057C15.56 13.6899 15.5065 13.089 15.8257 12.6589L15.9876 12.4407C16.0099 12.4106 16.0219 12.3743 16.0219 12.3369C16.0219 10.7701 14.7518 9.5 13.185 9.5H11.6463C10.1969 9.5 9.02194 10.675 9.02194 12.1244V12.2133C9.02194 12.3255 9.05968 12.4344 9.12909 12.5226L9.22745 12.6475C9.56088 13.071 9.48788 13.6846 9.06438 14.018L9.06426 14.0181C9.05273 14.027 9.04695 14.0315 9.04108 14.0358ZM13.9 19.5H14.9V25.5H13.9V19.5ZM15 13.5V12.5C15 11.3954 14.1046 10.5 13 10.5V11.5C13.5523 11.5 14 11.9477 14 12.5V13.5H15ZM24.5 27V25.9208H22.4279V22.9339H21.7419V25.9208H20.2069V22.6593H19.5V27H24.5ZM21.9324 20.4198H20.1826V18.8974C20.1826 18.064 20.5118 17.5533 21.0558 17.5533C21.6137 17.5533 21.9324 18.0351 21.9324 18.8685V20.4198ZM22.5943 20.4198H24.5V21.499H19.5V18.7481C19.5 17.3462 20.0995 16.4453 21.0385 16.4453C21.7107 16.4453 22.2581 16.9463 22.466 17.7942L24.5 16.2333V17.4811L22.5943 18.8974V20.4198ZM24.5 10.7323H23.7931V14.0661H22.2928V10.9105H21.6206V14.0661H20.2069V10.7323H19.5V15.1452H24.5V10.7323ZM23.7931 5H24.5V9.41297H19.5V5H20.2069V8.33381H21.6206V5.17825H22.2928V8.33381H23.7931V5Z" fill="black"/>
</svg>
