<?xml version="1.0" encoding="UTF-8"?>
<!DOCTYPE svg PUBLIC "-//W3C//DTD SVG 1.1//EN" "http://www.w3.org/Graphics/SVG/1.1/DTD/svg11.dtd">
<!-- Creator: CorelDRAW -->
<svg xmlns="http://www.w3.org/2000/svg" xml:space="preserve" width="0.145327in" height="0.250004in" style="shape-rendering:geometricPrecision; text-rendering:geometricPrecision; image-rendering:optimizeQuality; fill-rule:evenodd; clip-rule:evenodd"
viewBox="0 0 0.144821 0.249133"
 xmlns:xlink="http://www.w3.org/1999/xlink">
 <defs>
  <style type="text/css">
   <![CDATA[
    .fil0 {fill:#FEFEFE}
   ]]>
  </style>
 </defs>
 <g id="Layer_x0020_1">
  <metadata id="CorelCorpID_0Corel-Layer"/>
  <path class="fil0" d="M0.144821 0.0951635l0 0.0588416c0,0.00371929 -0.00126722,0.00693247 -0.00380167,0.00963954 -0.00253837,0.00270708 -0.00575155,0.00405669 -0.00963954,0.00405669 -0.00388799,0 -0.00710117,-0.00134961 -0.00963562,-0.00405669 -0.00253837,-0.00270708 -0.00389191,-0.00592026 -0.00406061,-0.00963954l0 -0.0497121 -0.0088745 0 0 0.1291c0,0.00422539 -0.00160855,0.00794468 -0.00482173,0.0111579 -0.00321318,0.00321318 -0.00693247,0.00473542 -0.0111579,0.00456672 -0.00422931,-0.000168702 -0.0079486,-0.00169094 -0.0111618,-0.00456672 -0.00321318,-0.00287185 -0.00473542,-0.00659506 -0.00456279,-0.0111579l0 -0.0656917 -0.00913344 0 0 0.0656917c0,0.00422539 -0.00160463,0.00794468 -0.00481781,0.0111579 -0.00321318,0.00321318 -0.00693247,0.00473542 -0.0111579,0.00456672 -0.00422931,-0.000168702 -0.0079486,-0.00169094 -0.0111618,-0.00456672 -0.00321318,-0.00287185 -0.0047315,-0.00659506 -0.00456279,-0.0111579l0 -0.1291 -0.00913344 0 0 0.0497121c0,0.00371929 -0.00126722,0.00693247 -0.00380167,0.00963954 -0.00253837,0.00270708 -0.00575155,0.00405669 -0.00963954,0.00405669 -0.00388799,0 -0.00710117,-0.00134961 -0.00963562,-0.00405669 -0.00253837,-0.00270708 -0.00389191,-0.00592026 -0.00406061,-0.00963954l0 -0.0588416c0,-0.00760727 0.00262076,-0.0140336 0.00786229,-0.0192752 0.00524152,-0.00524152 0.0116679,-0.00786229 0.0192752,-0.00786229l0.0905458 0c0.0076112,0 0.0140336,0.00262076 0.0192752,0.00786229 0.00524152,0.00524152 0.00786229,0.0116679 0.00786229,0.0192752zm-0.0405787 -0.0634044c0,0.00879211 -0.00312687,0.0162307 -0.00938453,0.0223196 -0.00625766,0.00608503 -0.0136962,0.0092119 -0.0223196,0.00938453 -0.00862341,0.000168702 -0.0161483,-0.00296209 -0.0225707,-0.00938453 -0.00642636,-0.00642636 -0.00947084,-0.0138649 -0.00913344,-0.0223196 0.000337404,-0.00845471 0.00338188,-0.0159796 0.00913344,-0.0225747 0.00574763,-0.00659506 0.0132725,-0.00963562 0.0225707,-0.00912951 0.00929821,0.000506105 0.0167407,0.00355058 0.0223196,0.00912951 0.00557893,0.00557893 0.0087058,0.0131038 0.00938453,0.0225747z"/>
 </g>
</svg>
