
<svg width="32" height="32" viewBox="0 0 32 32" fill="none" xmlns="http://www.w3.org/2000/svg">
<path d="M22.9514 13.1677V18.8363C22.9514 19.1946 22.8293 19.5041 22.5849 19.7647C22.3406 20.0254 22.0311 20.1557 21.6565 20.1557C21.2818 20.1557 20.9723 20.0254 20.728 19.7647C20.4837 19.5041 20.3534 19.1946 20.3371 18.8363V14.0473H19.4819V26.4839C19.4819 26.8911 19.3272 27.2495 19.0177 27.559C18.7082 27.8685 18.3498 28.0151 17.9426 27.9988C17.5354 27.9825 17.177 27.8359 16.8675 27.559C16.558 27.2821 16.4114 26.9237 16.4277 26.4839V20.1557H15.5481V26.4839C15.5481 26.8911 15.3934 27.2495 15.0839 27.559C14.7744 27.8685 14.4161 28.0151 14.0088 27.9988C13.6016 27.9825 13.2433 27.8359 12.9338 27.559C12.6243 27.2821 12.4777 26.9237 12.494 26.4839V14.0473H11.6144V18.8363C11.6144 19.1946 11.4922 19.5041 11.2479 19.7647C11.0035 20.0254 10.694 20.1557 10.3194 20.1557C9.94476 20.1557 9.63527 20.0254 9.39093 19.7647C9.1466 19.5041 9.01629 19.1946 9 18.8363V13.1677C9 12.4347 9.25248 11.8158 9.75743 11.3108C10.2624 10.8058 10.8814 10.5534 11.6144 10.5534H20.3371C21.0701 10.5534 21.689 10.8058 22.194 11.3108C22.699 11.8158 22.9514 12.4347 22.9514 13.1677ZM19.0421 7.0594C19.0421 7.90643 18.7408 8.62314 18.1381 9.20954C17.5354 9.79594 16.8187 10.0973 15.9879 10.1136C15.1572 10.1299 14.4323 9.82852 13.8134 9.20954C13.1944 8.59056 12.9012 7.87385 12.9338 7.0594C12.9663 6.24496 13.2595 5.5201 13.8134 4.88483C14.3672 4.24957 15.092 3.95637 15.9879 4.00524C16.8838 4.0541 17.6005 4.3473 18.1381 4.88483C18.6756 5.42237 18.9769 6.14723 19.0421 7.0594Z" fill="black"/>
</svg>
