<svg width="32" height="32" viewBox="0 0 32 32" fill="none" xmlns="http://www.w3.org/2000/svg">
<path fill-rule="evenodd" clip-rule="evenodd" d="M15.1442 9C16.2487 9 17.1442 8.10457 17.1442 7C17.1442 5.89543 16.2487 5 15.1442 5C14.0396 5 13.1442 5.89543 13.1442 7C13.1442 8.10457 14.0396 9 15.1442 9ZM14.1442 11C14.1442 10.4477 14.5919 10 15.1442 10C15.6965 10 16.1442 10.4477 16.1442 11V12H21.1442C21.6965 12 22.1442 12.4477 22.1442 13C22.1442 13.5523 21.6965 14 21.1442 14H16.1442V18H20.1442C20.6965 18 21.1442 18.4477 21.1442 19C21.1442 19.1957 21.088 19.3783 20.9908 19.5325C21.2212 19.619 21.4153 19.8035 21.5024 20.062L22.3916 22.6976C22.4254 22.7979 22.4386 22.9002 22.4333 23H24.1442C24.6965 23 25.1442 23.4477 25.1442 24C25.1442 24.5523 24.6965 25 24.1442 25H22.1442C21.5919 25 21.1442 24.5523 21.1442 24C21.1442 23.879 21.1657 23.763 21.2051 23.6556C21.052 23.5644 20.9277 23.4225 20.8603 23.2428L19.8839 20.6382C19.8042 20.4256 19.8137 20.1978 19.8979 20H15.1442C14.5919 20 14.1442 19.5523 14.1442 19V13V11ZM7.12047 15.6595C8.3234 13.576 10.3255 12.1475 12.5993 11.6868L12.8972 13.157C11.0429 13.5326 9.40633 14.7003 8.41951 16.4095C7.69852 17.6583 7.3974 19.0662 7.53075 20.4512C7.72851 22.5052 8.85825 24.3211 10.6309 25.3445C13.118 26.7805 16.2798 26.3073 18.3652 24.2355L19.4224 25.2996C16.8648 27.8405 12.9649 28.4242 9.88086 26.6436C7.68092 25.3734 6.28109 23.1234 6.03765 20.595C5.87453 18.9007 6.24252 17.1802 7.12047 15.6595Z" fill="black"/>
</svg>
