<svg width="32" height="32" viewBox="0 0 32 32" fill="none" xmlns="http://www.w3.org/2000/svg">
<path fill-rule="evenodd" clip-rule="evenodd" d="M23.62 10.4103H24.9228C27.6129 10.4103 29.7936 12.3987 29.7936 14.8515V17.0337C29.7936 19.4865 27.6129 21.4749 24.9228 21.4749H23.4099C21.565 23.4859 18.8374 24.648 15.9619 24.648C13.0864 24.648 10.3589 23.4859 8.51396 21.4749H6.87286C5.58069 21.4754 4.34125 21.0077 3.42735 20.1748C2.51346 19.3418 2 18.2119 2 17.0337V14.8515C2 13.6733 2.51346 12.5434 3.42735 11.7104C4.34125 10.8775 5.58069 10.4098 6.87286 10.4103H8.30593C10.1454 8.25829 12.9706 7 15.963 7C18.9554 7 21.7805 8.25829 23.62 10.4103ZM18.4908 8.66876C18.2635 8.66474 18.0445 8.74656 17.8856 8.89484C17.7159 9.06034 17.6272 9.28162 17.6398 9.50794C17.6159 9.72375 17.6996 9.93794 17.8678 10.0913C18.036 10.2447 18.2709 10.321 18.5076 10.2992C18.72 10.307 18.9314 10.2676 19.1233 10.1843V9.83748C18.9745 9.92125 18.8022 9.96384 18.6274 9.9601C18.3332 9.9601 18.1777 9.84706 18.1609 9.62098H19.2872V9.4198C19.2987 9.21909 19.2232 9.02231 19.0771 8.87185C18.9242 8.72845 18.7096 8.65409 18.4908 8.66876ZM16.648 8.66876C16.42 8.66444 16.2002 8.74626 16.0407 8.89484C15.871 9.06034 15.7822 9.28162 15.7949 9.50794C15.771 9.72375 15.8547 9.93794 16.0229 10.0913C16.1911 10.2447 16.426 10.321 16.6627 10.2992C16.8751 10.307 17.0864 10.2676 17.2784 10.1843V9.83748C17.1296 9.92125 16.9573 9.96384 16.7825 9.9601C16.4904 9.9601 16.3328 9.84706 16.316 9.62098H17.4339V9.4198C17.4453 9.21909 17.3699 9.02231 17.2237 8.87185C17.0735 8.73087 16.8632 8.6567 16.648 8.66876ZM15.0636 8.70324H14.5383V10.2686H15.0636V9.52709C15.0538 9.41544 15.0856 9.30402 15.154 9.21097C15.217 9.13522 15.3166 9.09231 15.4208 9.09601C15.4984 9.09384 15.5753 9.11036 15.6436 9.14391V8.69366C15.6017 8.68073 15.5575 8.67489 15.5133 8.67642C15.301 8.67346 15.1145 8.80455 15.0636 8.99255V8.70324ZM8.79343 18.6316H10.3084L11.8466 13.0505H10.1256L9.53938 16.3076L8.84806 13.0505H7.36456L6.67954 16.275L6.10589 13.0505H4.44589L5.91678 18.6316H7.40868L8.10211 15.3228L8.79343 18.6316ZM12.4686 18.6029H14.1286V14.6216H12.4686V18.6029ZM13.3154 14.1158C13.8491 14.1158 14.2694 13.8207 14.2694 13.4567H14.2609C14.2609 13.0926 13.8407 12.7976 13.307 12.7976C12.7732 12.7976 12.353 13.0926 12.353 13.4567C12.353 13.8207 12.7816 14.1158 13.3154 14.1158ZM13.8953 9.06152H14.2862V8.70899H13.8953V8.54422C13.8953 8.37562 13.9815 8.29323 14.1496 8.29323C14.2167 8.29383 14.283 8.30619 14.345 8.32964V7.95603C14.2583 7.93338 14.1683 7.92304 14.0781 7.92537C13.889 7.91542 13.7033 7.97395 13.5612 8.08823C13.4338 8.19927 13.3649 8.35491 13.3721 8.51548V8.70708H13.0863V9.06152H13.3721V10.2609H13.8953V9.06152ZM27.7683 19.7399C28.4537 19.1147 28.8376 18.2664 28.8354 17.3824V14.5832C28.8376 13.6993 28.4537 12.8509 27.7683 12.2257C27.083 11.6005 26.1528 11.2499 25.1834 11.2514H20.1109C19.9955 11.2529 19.8803 11.2619 19.7663 11.2783C16.4642 12.0499 16.4823 14.1843 16.5 16.2773C16.5155 18.1028 16.5307 19.8967 14.3429 20.7276L25.1834 20.7142C26.1528 20.7158 27.083 20.3652 27.7683 19.7399ZM16.6438 8.99255C16.5619 8.99529 16.4852 9.03023 16.4337 9.08835C16.3652 9.15679 16.3225 9.24338 16.3118 9.3355H16.9422C16.9408 9.10687 16.8413 8.99255 16.6438 8.99255ZM18.2786 9.08835C18.3302 9.03023 18.4068 8.99529 18.4887 8.99255C18.6862 8.99255 18.7857 9.10687 18.7871 9.3355H18.1567C18.1674 9.24338 18.2101 9.15679 18.2786 9.08835ZM25.6793 12.7708C25.1519 12.7708 24.7253 13.0658 24.7253 13.4299C24.7253 13.7939 25.1456 14.0889 25.6793 14.0889C26.213 14.0889 26.6417 13.7939 26.6417 13.4299C26.6417 13.0658 26.2046 12.7708 25.6793 12.7708ZM20.3105 18.6316H18.6274L18.619 13.0505H24.0025V14.3687H20.3105V15.5738H23.5402V16.8364H20.3105V18.6316ZM26.4925 14.5928H24.8325V18.5741H26.4925V14.5928Z" fill="black"/>
</svg>
